<svg width="24" height="26" viewBox="0 0 24 26" fill="none" xmlns="http://www.w3.org/2000/svg">
<path d="M20.0001 16.5858L21.9001 14.5275C22.6801 13.6825 22.6801 12.3067 21.9001 11.4617L20.0001 9.41415V6.49999C20.0001 5.30832 19.1001 4.33332 18.0001 4.33332H15.3101L13.4101 2.27499C12.6301 1.42999 11.3601 1.42999 10.5801 2.27499L8.69014 4.33332H6.00014C4.90014 4.33332 4.00014 5.30832 4.00014 6.49999V9.41415L2.10014 11.4725C1.32014 12.3175 1.32014 13.6933 2.10014 14.5383L4.00014 16.5967V19.5C4.00014 20.6917 4.90014 21.6667 6.00014 21.6667H8.69014L10.5901 23.725C11.3701 24.57 12.6401 24.57 13.4201 23.725L15.3201 21.6667H18.0001C19.1001 21.6667 20.0001 20.6917 20.0001 19.5V16.5858ZM12.0001 18.3083V7.69165C12.0001 7.03082 12.5501 6.48915 13.1501 6.61915C15.9101 7.20415 18.0001 9.83665 18.0001 13C18.0001 16.1633 15.9101 18.7958 13.1501 19.3808C12.5501 19.5108 12.0001 18.9692 12.0001 18.3083Z" fill="white"/>
</svg>
